<?xml version="1.0" encoding="utf-8"?>
<!-- Generator: Adobe Illustrator 22.0.1, SVG Export Plug-In . SVG Version: 6.00 Build 0)  -->
<svg version="1.1" id="Layer_1" xmlns="http://www.w3.org/2000/svg" xmlns:xlink="http://www.w3.org/1999/xlink" x="0px" y="0px"
	 viewBox="0 0 960 540" style="enable-background:new 0 0 960 540;" xml:space="preserve">
<style type="text/css">
	.st0{fill:#53A3F4;}
</style>
<path class="st0" d="M832,255.1c0-32.5-41-89.9-100.3-116.5c0,0-84-99.1-127.4-111.2C555.8,14,392.9,43.7,392.9,43.7l78,99.6l0.1,0
	c-35,18.9-66.6,42.6-91.2,63.3c-3.7-17.5-13.1-32.6-27.5-47c-34.9-34.9-95.8-32.8-95.8-32.8s-4.2,62.9,30.7,97.8
	c13.6,13.6,40.7,30.5,40.7,30.5s-29,17-42.6,30.6c-34.9,34.9-28.8,97.8-28.8,97.8s60.8,6.2,95.8-28.7c14.4-14.4,23.7-33.6,27.5-51.1
	c50.6,42.6,131.1,97.9,208.4,97.9c0,0-16.3,65.1-48.8,81.3c0,0,74.1,37.1,169.6-101.8l-0.9,0.2C779.8,355.8,832,287.7,832,255.1z
	 M742.5,270.5c-16.3,0-29.6-13.3-29.6-29.6s13.3-29.6,29.6-29.6s29.6,13.3,29.6,29.6S758.9,270.5,742.5,270.5z"/>
</svg>
